<?xml version="1.0" encoding="UTF-8" standalone="no"?>
<!-- Created with Inkscape (http://www.inkscape.org/) -->

<svg
   version="1.1"
   id="svg8430"
   width="880"
   height="880"
   viewBox="0 0 880 880"
   sodipodi:docname="slices-of-paprika-publicdomainvectors.org.svg"
   inkscape:version="1.2 (dc2aedaf03, 2022-05-15)"
   xmlns:inkscape="http://www.inkscape.org/namespaces/inkscape"
   xmlns:sodipodi="http://sodipodi.sourceforge.net/DTD/sodipodi-0.dtd"
   xmlns="http://www.w3.org/2000/svg"
   xmlns:svg="http://www.w3.org/2000/svg">
  <defs
     id="defs8434">
    <clipPath
       clipPathUnits="userSpaceOnUse"
       id="clipPath8448">
      <path
         d="M 0,660 H 660 V 0 H 0 Z"
         id="path8446" />
    </clipPath>
  </defs>
  <sodipodi:namedview
     id="namedview8432"
     pagecolor="#ffffff"
     bordercolor="#000000"
     borderopacity="0.25"
     inkscape:showpageshadow="2"
     inkscape:pageopacity="0.0"
     inkscape:pagecheckerboard="0"
     inkscape:deskcolor="#d1d1d1"
     showgrid="false"
     inkscape:zoom="0.95113636"
     inkscape:cx="441.05137"
     inkscape:cy="440.52569"
     inkscape:window-width="1920"
     inkscape:window-height="1017"
     inkscape:window-x="-8"
     inkscape:window-y="-8"
     inkscape:window-maximized="1"
     inkscape:current-layer="g8438">
    <inkscape:page
       x="0"
       y="0"
       id="page8436"
       width="880"
       height="880" />
  </sodipodi:namedview>
  <g
     id="g8438"
     inkscape:groupmode="layer"
     inkscape:label="Page 1"
     transform="matrix(1.3333333,0,0,-1.3333333,0,880)">
    <path
       d="M 1.27,0 H 660 V 658.949 H 1.27 Z"
       style="fill:#edfc97;fill-opacity:1;fill-rule:nonzero;stroke:none"
       id="path8440" />
    <g
       id="g8442">
      <g
         id="g8444"
         clip-path="url(#clipPath8448)">
        <g
           id="g8450"
           transform="translate(282.1836,313.3965)">
          <path
             d="m 0,0 c 13.564,1.777 11.473,12.039 12.556,21.795 1.702,15.377 10.747,16.445 19.643,24.724 5.761,5.363 7.64,17.338 4.496,24.387 -5.483,10.211 -36.423,16.124 -48.54,22.084 -37.17,18.28 -0.052,43.179 11.247,60.531 2.024,3.372 3.408,6.208 3.638,10.219 0.753,13.079 -10.08,9.903 -18.259,9.725 -22.616,-0.493 -18.282,26.626 -30.635,28.026 -15.298,1.734 -19.663,-23.297 -22.481,-33.777 -18.71,-67.671 -51.735,3.858 -78.843,9.736 -3.855,0.642 -6.518,0.606 -10.271,-0.661 -13.256,-4.479 -10.596,-10.748 -8.807,-21.719 4.731,-29.004 -29.029,-18.514 -29.184,-33.46 -0.255,-24.755 51.143,-26.516 66.776,-45.458 18.384,-23.938 -29.94,-43.563 -39.862,-57.878 -4.345,-7.103 -2.446,-13.488 2.847,-19.52 9.641,-10.986 31.509,8.448 41.512,-11.837 4.371,-8.864 2.849,-17.147 14.268,-18.734 19.074,-2.264 22.945,20.658 27.896,35.032 C -59.329,69.053 -24.522,-1.75 0,0 m -35.167,240.329 c 28.931,-9.084 61.692,-24.442 72.176,-55.066 9.472,-27.668 8.412,-40.712 23.729,-69.79 C 77.714,83.241 84.123,77.47 73.895,40.279 65.158,12.448 46.268,-26.203 16.67,-36.155 c -23.74,-7.982 -46.31,-4.704 -75.14,-15.84 -41.716,-16.112 -50.025,-28.785 -95.217,-5.877 -26.902,14.492 -50.82,29.391 -51.24,62.961 -0.418,33.626 5.442,48.732 -14.943,79.9 -26.813,40.998 -18.923,54.859 6.564,92.76 9.912,14.743 19.505,23.737 35.588,31.462 19.897,7.897 44.204,10.647 67.202,19.504 30.57,11.771 41.704,20.912 75.349,11.614"
             style="fill:#f5ac00;fill-opacity:1;fill-rule:evenodd;stroke:none"
             id="path8452" />
        </g>
        <g
           id="g8454"
           transform="translate(86.7437,435.0068)">
          <path
             d="m 0,0 c 0.155,14.945 33.915,4.456 29.184,33.46 -1.969,11.183 -3.37,20.359 11.255,21.869 34.337,3.546 67.767,-84.691 87.897,-4.354 2.91,11.608 6.767,28.917 21.25,28.905 12.353,-1.399 8.019,-28.519 30.635,-28.026 10.089,0.557 22.258,1.895 17.078,-13.254 -7.859,-22.976 -60.118,-49.371 -5.074,-71.285 8.964,-3.567 36.81,-11.761 40.354,-20.358 3.025,-7.339 -0.02,-16.388 -4.94,-22.048 -8.896,-8.28 -17.941,-9.347 -19.643,-24.724 -0.688,-8.711 -0.142,-21.936 -12.702,-21.405 -24.008,1.015 -57.609,66.183 -82.309,4.444 -4.411,-11.821 -12.204,-46.446 -31.324,-32.093 -10.516,7.896 -3.184,28.951 -32.903,25.658 -8.636,-0.957 -19.624,-2.347 -23.174,8.032 -4.21,12.312 23.562,28.842 32.641,37.341 47.063,44.056 -50.394,50.244 -57.556,73.033 z M 156.255,105.091 C 107.065,118.065 115.757,84.59 81.485,75.697 59.827,70.078 35.752,81.975 17.991,71.722 6.993,65.373 1.043,58.509 -6.079,48.213 -12.957,37.985 -25.597,20.522 -26.805,7.982 c -1.298,-45.048 61.362,-40.86 42.906,-91.463 -6.761,-18.539 -20.147,-39.609 -1.472,-56.4 8.622,-7.75 28.643,-13.488 40.519,-20.341 19.373,-11.842 32.366,-24.863 54.137,-6.903 21.284,17.557 23.41,38.521 60.094,28.631 l 2.175,-0.586 c 26.232,-7.635 38.4,-12.391 58.376,11.495 11.77,14.076 20.136,32.9 25.776,50.268 10.746,40.288 0.58,35.889 -23.968,60.59 -26.042,26.209 -3.326,46.808 -12.729,75.778 -8.743,25.544 -38.959,38.548 -62.754,46.04"
             style="fill:#ffcc00;fill-opacity:1;fill-rule:evenodd;stroke:none"
             id="path8456" />
        </g>
        <g
           id="g8458"
           transform="translate(94.2612,452.0312)">
          <path
             d="m 0,0 c 2.387,3.52 7.379,5.379 9.763,8.898 1.936,2.854 1.269,7.369 3.205,10.224 0.236,-1.339 0.487,-2.67 0.702,-3.991 C 14.947,7.306 13.262,4.668 6.251,2.088 4.217,1.34 2.095,0.7 0,0 m 26.788,-102.725 c 1.146,9.232 13.89,19.364 15.037,28.594 0.805,6.489 -9.99,12.081 -9.183,18.571 7.45,-3.001 16.13,-7.037 20.28,-11.972 1.461,-1.928 2.569,-4.125 2.337,-6.605 -0.671,-7.17 -11.834,-15.999 -17.098,-20.071 -3.749,-2.897 -7.595,-5.663 -11.373,-8.517 m 32.621,-60.611 c -3.295,1.967 -5.841,6.06 -9.136,8.026 -3.587,2.14 -7.927,2.158 -11.519,4.3 1.512,0.187 3.027,0.397 4.537,0.588 2.456,0.311 5.615,0.655 8.04,0.032 2.596,-0.667 4.014,-2.588 5.157,-4.91 1.315,-2.665 2.041,-5.368 2.921,-8.036 m 102.35,28.214 h -0.002 c -8.493,-2.716 -22.35,7.588 -30.843,4.873 -9.048,-2.893 -12.736,-18.806 -21.786,-21.699 1.591,4.6 2.866,9.297 4.451,13.89 2.149,6.246 8.053,21.993 16.373,22.6 7.129,0.518 18.217,-8.709 23.456,-12.93 2.546,-2.05 5.354,-4.406 8.351,-6.734 m 66.059,39.441 c -3.786,-6.567 -10.766,-11.218 -14.55,-17.785 -3.142,-5.452 -3.092,-12.82 -6.234,-18.272 1.148,4.522 0.962,9.189 1.495,14.008 0.429,3.859 1.319,6.915 4.187,9.612 1.576,1.48 3.475,2.762 5.239,4.009 2.689,1.903 5.266,3.813 7.685,6.064 0.776,0.722 1.501,1.514 2.178,2.364 m -45.368,91.88 c 3.323,-7.284 -4.127,-17.583 -0.803,-24.867 3.115,-6.834 17,-10.656 20.117,-17.491 -4.279,1.437 -8.586,2.785 -12.863,4.225 -3.048,1.027 -6.364,2.14 -9.249,3.559 -4.07,2.002 -11.33,6.072 -11.606,11.374 -0.322,6.148 7.384,15.172 11.153,19.529 1.055,1.219 2.147,2.441 3.251,3.671 m -24.217,61.159 c 3.395,-2.59 4.565,-7.275 7.958,-9.864 2.795,-2.132 7.817,-2.17 10.612,-4.303 -1.42,-0.103 -2.854,-0.231 -4.277,-0.262 -5.488,-0.12 -8.03,1.913 -10.549,6.481 -1.403,2.544 -2.519,5.284 -3.744,7.948 M 65.818,32.664 c 9.105,0.934 22.131,-12.45 31.233,-11.516 6.765,0.695 9.615,15.706 16.382,16.4 v 10e-4 c -0.54,-2.095 -1.071,-4.198 -1.656,-6.319 C 110.452,26.421 105.265,8.989 98.661,8.282 91.916,7.562 77.9,21.496 73.273,25.812 c -2.295,2.144 -4.797,4.505 -7.455,6.852"
             style="fill:#ffdd30;fill-opacity:1;fill-rule:evenodd;stroke:none"
             id="path8460" />
        </g>
        <g
           id="g8462"
           transform="translate(569.1455,355.6143)">
          <path
             d="m 0,0 c 10.316,8.982 2.898,16.376 -1.597,25.102 -7.088,13.753 -0.142,19.644 2.688,31.461 1.832,7.655 -3.226,18.671 -9.743,22.806 -10.217,5.471 -39.263,-6.715 -52.655,-8.454 -41.077,-5.33 -23.926,35.943 -24.11,56.651 -0.18,3.929 -0.598,7.054 -2.624,10.524 -6.607,11.311 -13.875,2.673 -20.59,-1.999 -18.567,-12.92 -29.957,12.071 -41.024,6.404 -13.703,-7.018 -3.493,-30.284 -0.046,-40.575 21.846,-66.725 -45.232,-25.403 -71.066,-35.501 -3.569,-1.597 -5.765,-3.1 -8.191,-6.231 -8.568,-11.064 -2.885,-14.816 4.675,-22.966 19.985,-21.545 -13.942,-31.48 -5.804,-44.017 13.481,-20.766 57.273,6.198 80.775,-0.933 28.556,-9.775 -0.845,-52.853 -1.192,-70.268 0.305,-8.321 5.419,-12.59 13.168,-14.689 14.109,-3.817 21.576,24.47 41.13,13.103 8.544,-4.968 11.857,-12.71 22.249,-7.716 17.143,8.666 7.689,29.902 3.861,44.615 C -87.625,24.708 -19.461,-15.022 0,0 m -162.236,180.761 c 29.13,8.437 64.916,13.762 90.589,-5.95 23.197,-17.812 29.529,-29.265 58.373,-45.017 C 18.698,112.333 27.232,111.07 39.279,74.43 47.394,46.411 53.039,3.762 33.886,-20.901 18.524,-40.682 -2.093,-50.437 -19.952,-75.659 c -25.841,-36.499 -25.751,-51.652 -76.072,-57.566 -30.426,-2.805 -58.594,-3.625 -77.513,24.111 -18.949,27.781 -22.424,43.607 -56.646,58.297 -45.015,19.322 -46.109,35.235 -45.843,80.907 0.105,17.764 3.121,30.566 12.246,45.896 12.209,17.585 30.936,33.321 45.198,53.422 18.954,26.716 23.173,40.49 56.346,51.353"
             style="fill:#990000;fill-opacity:1;fill-rule:evenodd;stroke:none"
             id="path8464" />
        </g>
        <g
           id="g8466"
           transform="translate(339.0586,348.8193)">
          <path
             d="m 0,0 c -8.138,12.537 25.789,22.472 5.804,44.017 -7.827,8.229 -14.068,15.097 -2.718,24.446 26.642,21.948 103.3,-33.07 75.632,44.991 -3.997,11.281 -10.357,27.834 1.714,35.836 11.067,5.667 22.457,-19.324 41.024,-6.404 8.097,6.044 17.494,13.892 21.558,-1.595 6.163,-23.487 -22.775,-74.384 35.205,-62.191 9.44,1.985 37.17,10.561 44.88,5.36 6.578,-4.441 9.047,-13.663 8.079,-21.103 -2.83,-11.816 -9.776,-17.707 -2.688,-31.46 4.245,-7.639 12.016,-18.353 1.258,-24.858 -20.561,-12.434 -84.602,23.271 -71.028,-41.826 2.862,-12.288 15.522,-45.446 -8.343,-44.065 -13.131,0.762 -18.669,22.359 -41.604,3.176 -6.667,-5.573 -15.052,-12.81 -23.751,-6.125 -10.316,7.926 3.675,37.059 6.539,49.161 C 106.4,30.096 21.786,-18.657 3.214,-3.634 Z M 72.044,173.981 C 23.887,157.58 49.645,134.501 26.011,108.136 11.076,91.472 -15.56,88.068 -24.685,69.703 c -5.651,-11.374 -6.811,-20.383 -7.049,-32.9 -0.073,-12.326 -0.941,-33.864 4.988,-44.981 23.836,-38.247 73.719,-0.099 86.337,-52.463 4.622,-19.182 5.124,-44.143 29.969,-47.799 11.467,-1.688 31.324,4.605 45.008,5.466 22.691,0.849 40.715,-2.809 48.918,24.194 8.02,26.4 -1.805,45.041 34.227,57.094 l 2.137,0.713 c 26.077,8.152 38.846,10.919 42.272,41.868 2.02,18.235 -1.424,38.545 -6.33,56.135 -13.333,39.507 -19.368,30.219 -53.482,37.219 -36.194,7.428 -28.662,37.155 -52.521,56.09 -21.413,16.442 -53.778,10.561 -77.745,3.642"
             style="fill:#b50000;fill-opacity:1;fill-rule:evenodd;stroke:none"
             id="path8468" />
        </g>
        <g
           id="g8470"
           transform="translate(335.9023,367.1606)">
          <path
             d="M 0,0 C 0.042,4.252 3.173,8.562 3.215,12.814 3.246,16.261 0.194,19.654 0.228,23.102 1.166,22.119 2.111,21.147 3.021,20.166 8.412,14.354 8.469,11.226 4.052,5.196 2.772,3.448 1.358,1.741 0,0 m 79.14,-70.762 c -4.153,8.325 0.861,23.815 -3.291,32.139 -2.916,5.852 -15.002,4.539 -17.92,10.391 7.869,1.622 17.33,3.061 23.516,1.246 2.283,-0.8 4.421,-2.015 5.601,-4.21 3.405,-6.345 -1.01,-19.875 -3.145,-26.18 -1.517,-4.487 -3.192,-8.918 -4.761,-13.386 m 60.702,-32.449 c -3.834,-0.184 -8.218,1.817 -12.05,1.63 -4.175,-0.2 -7.8,-2.586 -11.973,-2.786 1.153,0.991 2.3,2.005 3.454,2.999 1.872,1.617 4.315,3.651 6.677,4.472 2.533,0.882 4.778,0.065 7.014,-1.235 2.567,-1.494 4.669,-3.345 6.878,-5.08 m 69.661,80.118 h -0.002 c -5.573,-6.962 -22.816,-6.042 -28.39,-13.001 -5.937,-7.415 -0.209,-22.713 -6.148,-30.128 -1.219,4.711 -2.753,9.331 -3.976,14.033 -1.662,6.392 -5.457,22.776 1.142,27.883 5.652,4.376 19.991,2.821 26.689,2.203 3.255,-0.298 6.899,-0.709 10.685,-0.99 m 33.217,69.398 c 0.478,-7.564 -2.764,-15.3 -2.285,-22.865 0.399,-6.279 4.515,-12.391 4.915,-18.67 -1.545,4.402 -4.283,8.187 -6.504,12.497 -1.778,3.45 -2.729,6.488 -1.829,10.324 0.493,2.105 1.367,4.222 2.147,6.237 1.19,3.072 2.278,6.089 3.048,9.303 0.246,1.03 0.413,2.091 0.508,3.174 m -88.62,51.45 c 6.798,-4.232 6.288,-16.931 13.085,-21.162 6.376,-3.97 20.06,0.527 26.436,-3.444 -4.358,-1.169 -8.694,-2.429 -13.053,-3.594 -3.109,-0.831 -6.485,-1.738 -9.675,-2.152 -4.496,-0.583 -12.796,-1.209 -15.959,3.055 -3.669,4.944 -2.242,16.724 -1.512,22.439 0.205,1.598 0.437,3.221 0.678,4.858 m -54.003,37.554 c 4.262,-0.28 7.825,-3.537 12.086,-3.815 3.507,-0.23 7.712,2.515 11.219,2.284 -1.127,-0.87 -2.25,-1.77 -3.418,-2.584 -4.505,-3.135 -7.748,-2.848 -12.374,-0.436 -2.573,1.343 -5.021,3.011 -7.513,4.551 M 36.769,63.618 c 7.065,5.815 25.32,1.87 32.386,7.684 5.253,4.32 -0.677,18.402 4.577,22.723 0.708,-2.043 1.427,-4.089 2.113,-6.179 1.557,-4.74 6.878,-22.131 1.768,-26.373 -5.217,-4.329 -24.605,-0.476 -30.843,0.56 -3.101,0.517 -6.49,1.1 -10.001,1.585"
             style="fill:#e30000;fill-opacity:1;fill-rule:evenodd;stroke:none"
             id="path8472" />
        </g>
        <g
           id="g8474"
           transform="translate(366.1357,140.9805)">
          <path
             d="m 0,0 c 13.373,-2.869 14.843,7.5 19.126,16.335 6.755,13.917 15.636,11.894 26.786,16.716 7.225,3.128 13.008,13.779 12.405,21.474 -1.748,11.458 -28.92,27.39 -38.344,37.063 -28.904,29.671 14.408,40.703 30.869,53.27 3.035,2.5 5.285,4.71 6.847,8.413 5.089,12.071 -6.182,12.706 -13.949,15.276 -21.473,7.106 -8.309,31.211 -19.481,36.666 -13.836,6.757 -26.328,-15.369 -32.496,-24.298 -40.289,-57.501 -47.455,20.956 -71.028,35.572 -3.42,1.897 -5.941,2.754 -9.901,2.816 -13.992,0.219 -13.584,-6.576 -15.572,-17.514 -5.254,-28.915 -33.551,-7.727 -38.702,-21.758 -8.53,-23.239 39.31,-42.109 47.702,-65.194 9.304,-28.712 -42.8,-31.024 -56.943,-41.188 -6.474,-5.239 -6.823,-11.891 -3.855,-19.348 5.407,-13.577 32.521,-2.59 35.153,-25.051 1.15,-9.816 -3.058,-17.113 7.173,-22.432 17.213,-8.52 28.535,11.784 38.014,23.67 C -32.786,84.932 -23.694,6.562 0,0 M 47.332,238.231 C 71.553,219.985 97.278,194.543 96.904,162.175 96.564,132.934 91.199,120.996 95.895,88.469 101.099,52.413 105.206,44.829 83.113,13.212 65.564,-10.09 34.819,-40.185 3.6,-39.649 c -25.042,0.426 -45.214,11.073 -76.108,10.235 -44.704,-1.213 -56.775,-10.376 -91.687,26.345 -20.498,22.661 -38.046,44.71 -27.2,76.482 10.864,31.824 21.445,44.098 12.673,80.292 -11.538,47.608 0.537,58.028 37.243,85.208 14.278,10.571 26.33,15.835 44.068,17.728 21.395,0.779 45.219,-4.769 69.855,-4.124 32.747,0.855 46.299,5.741 74.888,-14.286"
             style="fill:#82970a;fill-opacity:1;fill-rule:evenodd;stroke:none"
             id="path8476" />
        </g>
        <g
           id="g8478"
           transform="translate(222.6953,321.0117)">
          <path
             d="m 0,0 c 5.151,14.031 33.449,-7.157 38.702,21.757 1.892,11.197 3.644,20.311 17.931,16.838 33.54,-8.155 35.495,-102.493 81.363,-33.535 6.63,9.965 16.06,24.981 29.703,20.122 11.172,-5.455 -1.992,-29.56 19.482,-36.666 9.691,-2.854 21.607,-5.667 11.654,-18.206 -15.1,-19.019 -73.181,-26.394 -28.649,-65.474 7.25,-6.364 30.744,-23.406 31.206,-32.694 0.395,-7.927 -5.504,-15.435 -12.039,-19.122 -11.151,-4.823 -20.032,-2.799 -26.787,-16.716 -3.564,-7.982 -7.477,-20.625 -19.134,-15.917 -22.281,8.993 -32.123,81.652 -76.071,31.746 -8.115,-9.662 -27.051,-39.678 -40.261,-19.751 -7.265,10.963 6.691,28.348 -22.413,35.194 -8.458,1.99 -19.279,4.359 -19.145,15.33 0.155,13.009 31.858,19.285 43.257,24.252 59.1,25.756 -30.659,64.22 -29.777,88.091 z M 182.425,46.705 C 140.417,75.4 137.398,40.947 102.127,44.044 79.838,46.002 61.136,65.272 40.971,61.558 28.478,59.257 20.575,54.782 10.415,47.467 0.51,40.131 -17.247,27.909 -22.586,16.497 c -16.306,-42.013 44.137,-59.047 9.805,-100.552 -12.577,-15.203 -32.247,-30.576 -20.27,-52.648 5.525,-10.19 22.469,-22.302 31.366,-32.736 14.291,-17.646 22.172,-34.262 48.701,-24.63 25.933,9.415 34.954,28.458 66.212,6.854 l 1.852,-1.279 c 22.164,-15.979 32.035,-24.534 58.856,-8.716 15.803,9.322 29.988,24.259 41.12,38.736 23.617,34.365 12.564,33.623 -2.295,65.116 -15.765,33.415 12.539,45.219 13.379,75.667 0.313,26.996 -23.805,49.368 -43.715,64.396"
             style="fill:#94ab13;fill-opacity:1;fill-rule:evenodd;stroke:none"
             id="path8480" />
        </g>
        <g
           id="g8482"
           transform="translate(235.479,334.5366)">
          <path
             d="m 0,0 c 3.426,2.517 8.753,2.599 12.182,5.116 2.776,2.04 3.66,6.518 6.439,8.56 C 18.399,12.335 18.188,10.996 17.947,9.68 16.53,1.879 14.063,-0.042 6.587,-0.125 4.421,-0.149 2.21,-0.042 0,0 m -9.154,-105.764 c 4.168,8.313 19.571,13.595 23.744,21.908 2.931,5.844 -5.369,14.729 -2.438,20.573 6.019,-5.322 12.845,-12.033 15.102,-18.07 0.732,-2.309 1.041,-4.746 -0.008,-7.008 -3.036,-6.531 -16.509,-11.113 -22.833,-13.187 -4.503,-1.476 -9.052,-2.793 -13.567,-4.216 m 10.442,-68.037 c -2.448,2.958 -3.475,7.668 -5.923,10.624 -2.663,3.218 -6.746,4.687 -9.411,7.906 1.484,-0.33 2.985,-0.64 4.474,-0.963 2.416,-0.529 5.508,-1.265 7.582,-2.662 2.224,-1.496 2.916,-3.783 3.217,-6.354 0.347,-2.949 0.125,-5.742 0.061,-8.551 m 105.887,-7.685 v 0 c -8.914,0.284 -18.517,14.634 -27.431,14.918 -9.494,0.306 -18.297,-13.455 -27.792,-13.149 3.035,3.801 5.812,7.8 8.843,11.598 4.116,5.164 14.952,18.027 22.996,15.811 6.89,-1.898 14.247,-14.304 17.772,-20.034 1.712,-2.784 3.568,-5.947 5.612,-9.144 m 75.456,15.046 c -5.769,-4.922 -13.902,-6.968 -19.668,-11.887 -4.785,-4.087 -7.206,-11.046 -11.991,-15.129 2.597,3.876 3.983,8.336 6.101,12.698 1.693,3.491 3.555,6.075 7.162,7.655 1.981,0.868 4.197,1.439 6.28,2.023 3.169,0.891 6.237,1.828 9.27,3.141 0.973,0.42 1.922,0.924 2.846,1.499 m -11.985,101.767 c 0.692,-7.975 -9.777,-15.188 -9.085,-23.163 0.645,-7.482 12.453,-15.736 13.102,-23.22 -3.552,2.789 -7.161,5.503 -10.708,8.292 -2.528,1.987 -5.279,4.145 -7.522,6.451 -3.165,3.248 -8.643,9.512 -7.129,14.601 1.756,5.903 12.037,11.823 17.051,14.667 1.4,0.796 2.839,1.582 4.291,2.372 m -2.339,65.736 c 2.331,-3.578 1.862,-8.383 4.193,-11.959 1.919,-2.943 6.64,-4.662 8.559,-7.606 -1.373,0.377 -2.768,0.736 -4.118,1.184 -5.212,1.725 -6.924,4.49 -7.771,9.64 -0.47,2.866 -0.604,5.823 -0.863,8.741 M 72.957,8.739 C 81.849,6.57 89.64,-10.402 98.532,-12.57 c 6.607,-1.611 14.317,11.581 20.925,9.969 h 0.002 c -1.21,-1.794 -2.417,-3.597 -3.678,-5.398 -2.859,-4.089 -13.581,-18.779 -20.04,-17.232 -6.596,1.578 -15.14,19.401 -18.053,25.018 -1.446,2.789 -3.012,5.851 -4.731,8.952"
             style="fill:#a7bf1c;fill-opacity:1;fill-rule:evenodd;stroke:none"
             id="path8484" />
        </g>
      </g>
    </g>
  </g>
</svg>
